<svg id="Layer_1" enable-background="new 0 0 500 500" viewBox="0 0 500 500" xmlns="http://www.w3.org/2000/svg"><g id="XMLID_603_" fill="#383838"><path id="XMLID_604_" d="m204.359 108.709c-7.54 6.592 6.009 13.106-3.759 51.01-9.767 37.905-84.7 92.839-60.49 175.967 11.404 39.153 37.959 58.824 62.864 68.681 4.814-8.569 9.681-18.038 14.235-28.236 11.726-26.259 19.104-52.096 21.931-76.797 3.482-30.418.019-59.232-10.295-85.646-2.518-6.444.95-13.695 7.743-16.194 6.793-2.5 14.34.701 16.858 7.144 11.791 30.193 15.734 62.986 11.726 97.466-1.998 17.172-5.967 34.774-11.843 52.607-2.764 7.831-5.907 15.714-9.444 23.638-20.831 46.647-48.058 78.69-48.331 79.008-3.805 4.443-4.055 10.526-1.061 15.063.748 1.134 1.698 2.168 2.844 3.06 5.743 4.456 14.251 3.582 19.016-1.961.984-1.145 20.263-23.771 39.523-59.356.625-.015.961-.03.961-.03 97.846-48.219 93.529-167.198 54.466-228.013-39.059-60.816-99.404-84.004-106.944-77.411z"/><path id="XMLID_605_" d="m203.535 93.5c16.804-1.008 29.284-18.144 27.867-38.273s-16.19-35.629-32.996-34.622c-16.807 1.009-29.282 18.145-27.867 38.273 1.417 20.13 16.188 35.63 32.996 34.622z"/><ellipse id="XMLID_606_" cx="264.55" cy="84.2" rx="19.796" ry="24.234"/><path id="XMLID_607_" d="m305.638 142.598c10.501.5 19.601-9.52 20.317-22.38s-7.22-23.689-17.722-24.189c-10.506-.5-19.602 9.521-20.319 22.38-.717 12.86 7.219 23.691 17.724 24.189z"/><path id="XMLID_608_" d="m333.105 183.139c8.917 2.404 18.945-4.495 22.396-15.411 3.453-10.915-.978-21.716-9.895-24.12-8.918-2.406-18.944 4.494-22.397 15.409-3.451 10.917.98 21.717 9.896 24.122z"/><path id="XMLID_609_" d="m371.964 188.616c-8.834-2.655-19.086 3.959-22.895 14.773-3.811 10.815.263 21.735 9.097 24.389 8.833 2.655 19.084-3.959 22.895-14.774 3.808-10.815-.264-21.734-9.097-24.388z"/></g></svg>