<?xml version="1.0" encoding="UTF-8" standalone="no"?>
<svg
   viewBox="0 0 64 64"
   version="1.1"
   id="svg3"
   sodipodi:docname="eco.svg"
   inkscape:version="1.4 (86a8ad7, 2024-10-11)"
   xmlns:inkscape="http://www.inkscape.org/namespaces/inkscape"
   xmlns:sodipodi="http://sodipodi.sourceforge.net/DTD/sodipodi-0.dtd"
   xmlns="http://www.w3.org/2000/svg"
   xmlns:svg="http://www.w3.org/2000/svg">
  <defs
     id="defs3" />
  <sodipodi:namedview
     id="namedview3"
     pagecolor="#ffffff"
     bordercolor="#000000"
     borderopacity="0.25"
     inkscape:showpageshadow="2"
     inkscape:pageopacity="0.0"
     inkscape:pagecheckerboard="0"
     inkscape:deskcolor="#d1d1d1"
     inkscape:zoom="12.734375"
     inkscape:cx="32"
     inkscape:cy="32"
     inkscape:window-width="1920"
     inkscape:window-height="1017"
     inkscape:window-x="-8"
     inkscape:window-y="-8"
     inkscape:window-maximized="1"
     inkscape:current-layer="svg3" />
  <g
     id="Travel_Location"
     data-name="Travel Location"
     style="fill:#7c052d;fill-opacity:1">
    <path
       d="m32 5.15a21.56519 21.56519 0 0 0 -21.61 21.52 27.4727 27.4727 0 0 0 2.22 10.22c.28.7.58 1.39.91 2.07.31.66.63995 1.31.98 1.95.37.69.75 1.36 1.15 2.03 5.37 8.94 13.32 15.91 16.35 15.91 2.66 0 9.4-5.6 14.65-13.25.88-1.29 1.73-2.64 2.5-4.03 2.63-4.72 4.46-9.91 4.46-14.9a21.55877 21.55877 0 0 0 -21.61-21.52zm8.86 33.42a13.99517 13.99517 0 0 1 -1.67 1.08 14.36477 14.36477 0 0 1 -5.47 1.76 12.21828 12.21828 0 0 1 -1.72.11 13.86469 13.86469 0 0 1 -2.51-.22 14.23376 14.23376 0 0 1 -2.51-.65 15.16647 15.16647 0 0 1 -2.99-1.49 14.64984 14.64984 0 0 1 -4.46-4.51 12.91424 12.91424 0 0 1 -1.02-1.91 13.92327 13.92327 0 0 1 -.79-2.22 15.01614 15.01614 0 0 1 -.48-3.76 14.76 14.76 0 1 1 27.21 7.93 15.08327 15.08327 0 0 1 -3.59 3.88z"
       id="path1"
       style="fill:#7c052d;fill-opacity:1" />
    <path
       d="m38.06 37.99a12.78229 12.78229 0 0 1 -9.74.99 12.79012 12.79012 0 0 1 -8.37-8.04l6.05-7.54a1.33206 1.33206 0 0 1 2.13.08l5.81 8.5z"
       id="path2"
       style="fill:#7c052d;fill-opacity:1" />
    <path
       d="m39.72 36.91-4.47-6.56 2.25-2.8a1.31676 1.31676 0 0 1 2.12.08l3.58 5.23a12.67633 12.67633 0 0 1 -3.48 4.05z"
       id="path3"
       style="fill:#7c052d;fill-opacity:1" />
    <circle
       cx="35.906"
       cy="20.906"
       r="2.644"
       id="circle3"
       style="fill:#7c052d;fill-opacity:1" />
  </g>
</svg>
